***************************************************************
 
http://www.torrentforce.org/imghost/3/greyshadow_tfbanner.png

***************************************************************
 
http://pix2links.com/images/61846766203584865784.jpg

***************************************************************

FILM TITLE: Grave Encounters (2011)

***************************************************************

Genre: Horror   

Release: 9 September 2011 (USA) 

Director: The Vicious Brothers

Writer: The Vicious Brothers

Stars: Sean Rogerson, Juan Riedinger and Ashleigh Gryzko

Country: Canada

Language: English

Plot:
Lance Preston and the crew of "Grave Encounters", a ghost-hunting 
reality television show...

IMDB Rating: 6.2/10 (1,504 votes)
 
http://www.imdb.com/title/tt1703199/ 

****************************************************************
 
http://pix2links.com/images/96785633958078115579.png 
http://pix2links.com/images/83882793577331761880.png 
http://pix2links.com/images/32674008793366904817.png 
http://pix2links.com/images/92452880211816296874.png

****************************************************************

[IMG]http://www.torrentforce.org/imghost/2/greyshadow_mediainfo.png[/IMG]
General
Complete name                    : Grave Encounters 2011 720p BRRip XviD ac3 (avi) [TFRG].avi
Format                           : AVI
Format/Info                      : Audio Video Interleave
Format profile                   : OpenDML
File size                        : 2.07 GiB
Duration                         : 1h 33mn
Overall bit rate                 : 3173 Kbps
Writing library                  : VirtualDub build 32842/release

Video
ID                               : 0
Format                           : MPEG-4 Visual
Format profile                   : Simple@L5
Format settings, BVOP            : No
Format settings, QPel            : No
Format settings, GMC             : No warppoints
Format settings, Matrix          : Default (H.263)
Codec ID                         : XVID
Codec ID/Hint                    : XviD
Duration                         : 1h 33mn
Bit rate                         : 2841 Kbps
Width                            : 1280 pixels
Height                           : 720 pixels
Display aspect ratio             : 16:9
Frame rate                       : 24.000 fps
Color space                      : YUV
Chroma subsampling               : 4:2:0
Bit depth                        : 8 bits
Scan type                        : Progressive
Compression mode                 : Lossy
Bits/(Pixel*Frame)               : 0.128
Stream size                      : 1.86 GiB (90%)
Writing library                  : XviD 64

Audio
ID                               : 1
Format                           : AC-3
Format/Info                      : Audio Coding 3
Mode extension                   : CM (complete main)
Codec ID                         : 2000
Duration                         : 1h 33mn
Bit rate mode                    : Constant
Bit rate                         : 320 Kbps
Channel(s)                       : 6 channels
Channel positions                : Front: L C R, Side: L R, LFE
Sampling rate                    : 48.0 KHz
Bit depth                        : 16 bits
Compression mode                 : Lossy
Stream size                      : 214 MiB (10%)
Alignment                        : Aligned on interleaves
Interleave, duration             : 42 ms (1.00 video frame)
Interleave, preload duration     : 512 ms

****************************************************************

Video Source: Grave Encounters 2011 1080p Blu-ray ITA AVC DTS-HD MA5.1 (20.3GB) 

Thanks: tiny (chdbits.org)

****************************************************************

I provide a small sample, so please download this to check your 
compatibility first if you are unsure.

****************************************************************

A big thanks to all the sites out there who care and share and
who make it possible for you to download this torrent for free.

Greetz to Westy, Ripwyn, mustang, noir, Blackjesus, MXMG, The Stig 
and all the other outstanding members of our community of file 
sharers and a special mention to our friends at 1337x.

****************************************************************